<svg xmlns="http://www.w3.org/2000/svg" xmlns:v="http://vecta.io" xmlns:xlink="http://www.w3.org/1999/xlink" viewBox="0 0 66 64" stroke="#000" stroke-linecap="round" stroke-linejoin="round" fill="#fff" fill-rule="evenodd" font-family="Roboto" font-size="14px" text-anchor="middle" width="300" height="300"><defs><style type="text/css"></style></defs><g><title>jquery-icon</title><use xlink:href="#WPZMglt3--NSJq14-qHkmx.sym" x="1" y="1"></use></g><symbol id="WPZMglt3--NSJq14-qHkmx.sym" overflow="visible" v:tags="jquery, logo, programming library, javascript"><title>jquery-icon</title><g id="juhn130ufuu" transform="translate(0 0)" class="" v:size="66,64,1,1"><path d="M 4.0615401534331 14.4700012207031 C -1.5984635086763 22.6100006103516 -0.898451301645 33.197998046875 3.4295516280425 41.8699951171875 C 3.5295577315581 42.0780029296875 3.6395430831206 42.2819976806641 3.7455306319487 42.4859924316406 L 3.94554283898 42.8759994506836 C 3.9855513839019 42.9519958496094 4.0295577315581 43.0260009765625 4.0715499190581 43.0999984741211 C 4.1455550460112 43.2399978637695 4.2215438155425 43.3679962158203 4.2975325850737 43.5039978027344 L 4.7115340499175 44.2119979858398 L 4.9475569991362 44.5999984741211 L 5.4275374678862 45.3499984741211 L 5.6315474776519 45.6660003662109 C 5.8575606612456 46.0019989013672 6.0875411299956 46.3379974365234 6.3255477217925 46.6660003662109 L 6.4615340499175 46.8499984741211 C 6.66771080773 47.1333618164063 6.878404167105 47.4133911132813 7.0935530928862 47.6900024414063 L 7.3335433272612 47.9939956665039 L 7.9175582198394 48.713996887207 L 8.1415572432769 48.9819946289063 C 8.4075484542144 49.2959976196289 8.6815352706206 49.6080017089844 8.955552604605 49.9120025634766 C 8.9835372237456 49.9420013427734 8.9955306319487 49.9519958496094 9.0035567549956 49.963996887207 C 9.2752547530425 50.2587127685547 9.5512862471831 50.5494079589844 9.8315596846831 50.8359985351563 L 10.0975508956206 51.1039962768555 L 10.75755455773 51.7519989013672 L 11.0275435714019 52.0119934082031 C 11.3245711592925 52.2920837402344 11.6266036299956 52.5668029785156 11.9335494307769 52.8359985351563 L 12.9255538253081 53.6759948730469 L 13.2655501631987 53.947998046875 L 13.9515548018706 54.4839935302734 L 14.3175521163237 54.7639923095703 L 15.0875411299956 55.3159942626953 L 15.4475569991362 55.5699920654297 C 15.6935591964019 55.739990234375 15.9435591964019 55.9019927978516 16.19554283898 56.0639953613281 L 16.5195479659331 56.2799987792969 C 16.9055953292144 56.5250701904297 17.29564049523 56.7637786865234 17.6895613936675 56.9960021972656 L 18.0135360030425 57.1959991455078 L 18.893540885855 57.68798828125 C 19.0535445479644 57.7740020751953 19.2175460128081 57.8560028076172 19.3795333174956 57.93798828125 L 20.00755455773 58.2639923095703 L 20.15355065148 58.3339996337891 L 20.413560417105 58.4579925537109 L 21.4095320967925 58.9179992675781 L 21.6195540694487 59.0119934082031 C 22.0040145186675 59.1794891357422 22.3914046553862 59.3401794433594 22.7815413741362 59.4939880371094 L 23.0615401534331 59.6060028076172 L 24.1575484542144 60.0119934082031 L 24.2975325850737 60.0599975585938 C 24.7022261885894 60.1993408203125 25.1089339522612 60.3326721191406 25.5175338057769 60.4599914550781 L 25.8135543135894 60.5480041503906 C 26.2135482100737 60.6739959716797 26.6455550460112 60.8280029296875 27.0735335616362 60.9039916992188 C 54.4615340499175 65.8979949951172 62.413560417105 44.4440002441406 62.413560417105 44.4440002441406 C 55.7335372237456 53.1479949951172 43.8735518721831 55.4440002441406 32.6135421065581 52.8880004882813 C 32.1875472335112 52.7919921875 31.7735457686675 52.6600036621094 31.3595443038237 52.5359954833984 L 31.0475325850737 52.4420013427734 C 30.6426558760894 52.3175354003906 30.2399459151519 52.1861877441406 29.8395552901519 52.0480041503906 L 29.6735396651519 51.9880065917969 C 29.31712487023 51.8614959716797 28.9624190596831 51.7301483154297 28.6095443038237 51.593994140625 L 28.309556510855 51.4739990234375 C 27.9229598311675 51.321891784668 27.539536979605 51.1618576049805 27.1595320967925 50.9939956665039 L 26.9295516280425 50.8939971923828 L 25.9595504073394 50.4420013427734 L 25.6795516280425 50.3079986572266 C 25.4275374678862 50.1879959106445 25.1795516280425 50.0540008544922 24.9295516280425 49.9079971313477 L 24.4295516280425 49.6479949951172 C 24.1255355147612 49.4879989624023 23.8295455245269 49.3159942626953 23.5295577315581 49.1439971923828 L 23.2255416182769 48.9739990234375 C 22.8318038253081 48.7414932250977 22.4417586592925 48.5027923583984 22.0555587081206 48.2579956054688 C 21.9495406417144 48.1900024414063 21.8455367354644 48.1179962158203 21.7395491866362 48.0479965209961 L 20.9075484542144 47.4939956665039 C 20.8155379561675 47.4339981079102 20.7075362471831 47.3659973144531 20.6395430831206 47.3059997558594 L 19.851548698355 46.7359924316406 L 19.5015425948394 46.4720001220703 L 18.7915511397612 45.9160003662109 L 18.4755416182769 45.6620025634766 L 17.59153893273 44.9160003662109 C 17.5594039229644 44.8878784179688 17.5260482100737 44.8611907958984 17.4915328292144 44.8359985351563 L 16.5615401534331 43.9899978637695 L 16.3015609053862 43.7379989624023 L 15.6375594405425 43.0780029296875 L 15.3775496749175 42.8179931640625 C 15.0975508956206 42.5319976806641 14.8255477217925 42.2439956665039 14.5775313643706 41.9499969482422 C 14.5635543135894 41.9359970092773 14.54954674523 41.9219970703125 14.5375533370269 41.9059982299805 C 14.254380729605 41.5951766967773 13.9769759444487 41.2791213989258 13.705552604605 40.9579925537109 L 13.5055403975737 40.697998046875 L 12.9055342940581 39.9579925537109 L 12.705552604605 39.6839981079102 L 12.0135360030425 38.7639923095703 C 5.73753502648 30.2599945068359 3.4935469893706 18.5039978027344 8.4815535811675 8.8639984130859 M 21.6415572432769 7.6139984130859 C 17.5455489424956 13.5079956054688 17.7675338057769 21.4140014648438 20.9615340499175 27.629997253418 C 21.4967513350737 28.6776580810547 22.1021285323394 29.6879577636719 22.7735457686675 30.6539993286133 C 23.3875594405425 31.5339965820313 24.0675521163237 32.5800018310547 24.8815474776519 33.2859954833984 C 25.1775374678862 33.6119995117188 25.4855513839019 33.9259948730469 25.8015609053862 34.2399978637695 L 26.0415511397612 34.4799957275391 C 26.3472152022612 34.7780914306641 26.6599898604644 35.0688400268555 26.9795394210112 35.3519973754883 C 26.9935469893706 35.3619995117188 27.0035567549956 35.3759994506836 27.0195479659331 35.3860015869141 C 27.38353112023 35.7059936523438 27.7515425948394 35.9859924316406 28.1255355147612 36.302001953125 L 28.3735518721831 36.4960021972656 C 28.74876549523 36.7853851318359 29.13157799523 37.0648193359375 29.5215316085112 37.3339996337891 L 29.5555587081206 37.3580017089844 C 29.7275557784331 37.4779968261719 29.90355065148 37.5879974365234 30.0795455245269 37.7039947509766 C 30.163560417105 37.7579956054688 30.2435469893706 37.8159942626953 30.3275618819487 37.8679962158203 C 30.6071334151519 38.0473785400391 30.8905501631987 38.2207489013672 31.1775374678862 38.3880004882813 L 31.2975325850737 38.4579925537109 L 32.04954674523 38.8580017089844 C 32.1375594405425 38.9079971313477 32.2495589522612 38.9499969482422 32.3175521163237 38.9980010986328 L 32.8435530928862 39.2699966430664 C 32.8695540694487 39.2839965820313 32.8975386885894 39.2939987182617 32.9235396651519 39.3059997558594 C 33.2842879561675 39.4856643676758 33.6497664717925 39.6557235717773 34.0195479659331 39.8159942626953 L 34.2595382003081 39.9160003662109 C 34.5574507979644 40.0424652099609 34.8574996260894 40.163818359375 35.1595320967925 40.2799987792969 L 35.5435347823394 40.4199981689453 C 35.8173995284331 40.5195465087891 36.092759635855 40.6148910522461 36.3695540694487 40.7059936523438 L 36.7435469893706 40.8259963989258 C 37.1375594405425 40.9459991455078 37.5435347823394 41.1060028076172 37.9375472335112 41.1719970703125 C 59.0835433272612 44.6759948730469 63.96556237023 28.3719940185547 63.96556237023 28.3719940185547 C 59.5655379561675 34.7119979858398 51.0455489424956 37.7319946289063 41.9495406417144 35.3719940185547 C 41.5475325850737 35.2662124633789 41.1480574874175 35.1508483886719 40.7515425948394 35.0260009765625 C 40.6315474776519 34.9899978637695 40.5115523604644 34.9499969482422 40.3915572432769 34.9099960327148 L 39.5515609053862 34.6219940185547 L 39.1515364913237 34.4819946289063 C 38.849595573355 34.3655014038086 38.5495772628081 34.2441558837891 38.2515425948394 34.1179962158203 L 38.00755455773 34.0179977416992 C 37.63548424523 33.8562622070313 37.2673507003081 33.6855392456055 36.90355065148 33.5059967041016 L 36.3495345381987 33.2259979248047 L 36.0295577315581 33.0619964599609 C 35.7942366866362 32.9342346191406 35.5608687667144 32.8028869628906 35.3295455245269 32.6679992675781 L 35.1615462569487 32.5739974975586 C 34.8754134444487 32.406379699707 34.5926986006987 32.2330093383789 34.3135543135894 32.0540008544922 C 34.2275557784331 32 34.143540885855 31.9400024414063 34.0575423506987 31.8840026855469 L 33.50755455773 31.5199966430664 C 33.1201644210112 31.2515258789063 32.7400374678862 30.9727630615234 32.3675399092925 30.6839981079102 L 32.1075301436675 30.4839935302734 C 28.1075301436675 27.3399963378906 24.9715438155425 23.0439987182617 23.4715438155425 18.1759948730469 C 21.8995528487456 13.1259994506836 22.23753502648 7.4559936523438 24.9615340499175 2.8559951782227 M 36.4255538253081 2.4899978637695 C 34.0135360030425 6.0599975585938 33.7735457686675 10.4559936523438 35.4495406417144 14.379997253418 C 37.21556237023 18.5459976196289 40.8355574874175 21.8119964599609 45.0615401534331 23.379997253418 L 45.5855574874175 23.5800018310547 L 45.8175521163237 23.6519927978516 L 46.5715499190581 23.8519973754883 C 58.247544792105 26.1080017089844 61.4115462569487 17.8600006103516 62.25755455773 16.64599609375 C 59.4835372237456 20.6399993896484 54.8215499190581 21.5979995727539 49.101548698355 20.2099990844727 C 48.6495528487456 20.0999984741211 48.15355065148 19.9359970092773 47.7175460128081 19.7819976806641 C 47.15794518273 19.5836639404297 46.6092086104644 19.3560180664063 46.0735335616362 19.0999984741211 C 45.0569319991362 18.6110687255859 44.0915084151519 18.0221710205078 43.1915450362456 17.3419952392578 C 38.0735335616362 13.4599990844727 34.893540885855 6.0319976806641 38.2335372237456 0" stroke="none" fill="#0868ac" stroke-width="2"></path></g></symbol></svg>